<?xml version="1.0" encoding="UTF-8" standalone="no"?>
<!-- Created with Inkscape (http://www.inkscape.org/) -->

<svg
   xmlns:dc="http://purl.org/dc/elements/1.1/"
   xmlns:cc="http://creativecommons.org/ns#"
   xmlns:rdf="http://www.w3.org/1999/02/22-rdf-syntax-ns#"
   xmlns:svg="http://www.w3.org/2000/svg"
   xmlns="http://www.w3.org/2000/svg"
   xmlns:sodipodi="http://sodipodi.sourceforge.net/DTD/sodipodi-0.dtd"
   xmlns:inkscape="http://www.inkscape.org/namespaces/inkscape"
   width="300"
   height="240"
   viewBox="0 0 299.99999 239.99999"
   id="svg2"
   version="1.1"
   inkscape:version="0.91 r13725"
   sodipodi:docname="icono-hvac.svg">
  <defs
     id="defs4">
    <filter
       style="color-interpolation-filters:sRGB"
       inkscape:label="Drop Shadow"
       id="filter3574">
      <feFlood
         flood-opacity="0.501961"
         flood-color="rgb(0,0,0)"
         result="flood"
         id="feFlood3576" />
      <feComposite
         in="flood"
         in2="SourceGraphic"
         operator="in"
         result="composite1"
         id="feComposite3578" />
      <feGaussianBlur
         in="composite1"
         stdDeviation="4"
         result="blur"
         id="feGaussianBlur3580" />
      <feOffset
         dx="0"
         dy="0"
         result="offset"
         id="feOffset3582" />
      <feComposite
         in="SourceGraphic"
         in2="offset"
         operator="over"
         result="composite2"
         id="feComposite3584" />
    </filter>
    <filter
       style="color-interpolation-filters:sRGB;"
       inkscape:label="Drop Shadow"
       id="filter5269">
      <feFlood
         flood-opacity="0.501961"
         flood-color="rgb(0,0,0)"
         result="flood"
         id="feFlood5271" />
      <feComposite
         in="flood"
         in2="SourceGraphic"
         operator="in"
         result="composite1"
         id="feComposite5273" />
      <feGaussianBlur
         in="composite1"
         stdDeviation="4"
         result="blur"
         id="feGaussianBlur5275" />
      <feOffset
         dx="0"
         dy="0"
         result="offset"
         id="feOffset5277" />
      <feComposite
         in="SourceGraphic"
         in2="offset"
         operator="over"
         result="composite2"
         id="feComposite5279" />
    </filter>
    <filter
       style="color-interpolation-filters:sRGB;"
       inkscape:label="Drop Shadow"
       id="filter5319">
      <feFlood
         flood-opacity="0.501961"
         flood-color="rgb(0,0,0)"
         result="flood"
         id="feFlood5321" />
      <feComposite
         in="flood"
         in2="SourceGraphic"
         operator="in"
         result="composite1"
         id="feComposite5323" />
      <feGaussianBlur
         in="composite1"
         stdDeviation="4"
         result="blur"
         id="feGaussianBlur5325" />
      <feOffset
         dx="0"
         dy="0"
         result="offset"
         id="feOffset5327" />
      <feComposite
         in="SourceGraphic"
         in2="offset"
         operator="over"
         result="composite2"
         id="feComposite5329" />
    </filter>
  </defs>
  <sodipodi:namedview
     id="base"
     pagecolor="#7ab2ff"
     bordercolor="#666666"
     borderopacity="1.0"
     inkscape:pageopacity="0"
     inkscape:pageshadow="2"
     inkscape:zoom="1.4"
     inkscape:cx="199.33225"
     inkscape:cy="80.049902"
     inkscape:document-units="px"
     inkscape:current-layer="layer1"
     showgrid="false"
     fit-margin-top="0"
     fit-margin-left="0"
     fit-margin-right="0"
     fit-margin-bottom="0"
     inkscape:window-width="1366"
     inkscape:window-height="718"
     inkscape:window-x="0"
     inkscape:window-y="0"
     inkscape:window-maximized="1"
     units="px" />
  <metadata
     id="metadata7">
    <rdf:RDF>
      <cc:Work
         rdf:about="">
        <dc:format>image/svg+xml</dc:format>
        <dc:type
           rdf:resource="http://purl.org/dc/dcmitype/StillImage" />
        <dc:title></dc:title>
      </cc:Work>
    </rdf:RDF>
  </metadata>
  <g
     inkscape:label="Capa 1"
     inkscape:groupmode="layer"
     id="layer1"
     transform="translate(-215.37424,-342.34859)">
    <path
       style="fill:#ffffff;filter:url(#filter5319)"
       d="m 366.73591,549.84846 -0.0224,-20.00985 1.23519,-0.24703 c 0.67934,-0.13587 2.03657,-0.24705 3.01606,-0.24705 5.06197,0 15.08714,-2.44542 21.78711,-5.31449 10.10125,-4.32557 20.15399,-12.40912 27.30736,-21.95819 5.06732,-6.76438 9.55538,-16.91951 11.49821,-26.01691 1.06367,-4.98079 1.45411,-15.11937 0.78877,-20.48253 -2.77516,-22.37027 -16.33408,-41.68106 -36.1861,-51.53673 -8.68537,-4.31191 -16.49803,-6.48194 -25.11086,-6.97473 l -4.33574,-0.24809 0.0145,-20.987 0.0145,-20.98702 1.60171,4.7421 c 2.20185,6.51888 5.36509,13.36933 8.00638,17.33893 4.44086,6.67423 9.25087,9.69724 15.4776,9.72745 6.62235,0.032 16.21587,-5.19046 25.03128,-13.62668 3.97774,-3.80664 4.11944,-3.90149 3.83837,-2.56917 -1.73461,8.22194 -2.23993,11.86988 -2.46639,17.80509 -0.27607,7.2352 0.18588,10.53926 2.02842,14.50831 2.04878,4.41329 6.78885,7.73644 12.89402,9.03971 5.42749,1.15862 16.82113,0.2263 24.56794,-2.01033 l 3.06364,-0.88451 -1.79502,2.0159 c -11.63639,13.06832 -16.75645,22.87236 -15.6224,29.91419 0.7852,4.87559 3.30503,8.80476 7.87273,12.27594 4.5425,3.452 14.24033,7.75226 22.17786,9.83418 l 1.76445,0.46281 -5.32175,1.74231 c -6.40313,2.09636 -15.40807,6.44934 -19.01581,9.19223 -5.29995,4.02943 -7.8303,8.62014 -7.84271,14.22879 -0.015,6.73421 4.8793,15.69802 13.91512,25.48563 l 3.42011,3.70467 -2.24705,-0.53431 c -6.98528,-1.661 -11.84356,-2.2636 -18.45256,-2.28878 -7.18216,-0.0274 -9.29446,0.34601 -13.22501,2.33778 -2.38244,1.20727 -5.75099,4.82496 -6.96809,7.48345 -3.11324,6.80022 -2.7989,17.93558 0.8992,31.85271 0.20761,0.78132 -0.38934,0.38035 -2.8522,-1.91576 -3.91973,-3.6544 -10.33017,-8.48241 -14.20999,-10.70227 -11.83516,-6.77156 -21.09437,-4.82623 -28.0759,5.89865 -2.95326,4.53676 -5.34297,9.8673 -7.35363,16.40315 l -1.09434,3.55732 -0.0224,-20.00987 z m -22.94728,14.06792 c -0.76087,-0.34287 -1.8884,-1.10272 -2.50563,-1.68855 -2.24294,-2.12883 -2.23744,-2.08838 -2.23744,-16.46051 0,-7.2934 -0.0928,-13.26073 -0.20629,-13.26073 -0.11349,0 -3.16299,1.9764 -6.77678,4.39199 -3.61377,2.41557 -7.16148,4.63889 -7.88379,4.9407 -3.63592,1.5192 -7.96065,-0.26596 -9.68252,-3.99673 -1.27993,-2.77326 -0.73406,-6.19305 1.34692,-8.43822 0.47877,-0.51652 5.89516,-4.33579 12.03646,-8.48729 l 11.166,-7.54818 0,-19.6801 c 0,-10.82407 -0.0797,-19.68011 -0.17707,-19.68011 -0.4984,0 -33.31036,19.13764 -33.82436,19.72812 -0.46926,0.53909 -0.80195,3.60275 -1.5065,13.87283 -0.93479,13.62632 -1.17905,15.02796 -2.94963,16.92612 -2.59827,2.7855 -7.25311,3.25256 -10.02852,1.00623 -2.77972,-2.24983 -3.09489,-2.96225 -3.09489,-6.99615 0,-1.99547 0.1487,-6.27559 0.33044,-9.51138 l 0.33043,-5.88328 -1.31857,0.79564 c -4.8106,2.90279 -19.74335,11.39007 -20.8721,11.863 -0.83664,0.35054 -2.14721,0.50944 -3.35969,0.40737 -5.86083,-0.49344 -8.96612,-7.10406 -5.66076,-12.05078 0.81886,-1.2255 3.0583,-2.69419 12.178,-7.98678 l 11.17463,-6.48514 -7.86362,-3.98916 c -6.99015,-3.54604 -7.99534,-4.17952 -9.0494,-5.70303 -1.01202,-1.46277 -1.18577,-2.08036 -1.18577,-4.21496 0,-2.13875 0.17255,-2.74936 1.19107,-4.21496 1.46602,-2.10957 4.03629,-3.49254 6.49096,-3.49254 1.88147,0 4.99836,1.367 19.52313,8.56244 3.65848,1.81239 6.94075,3.29525 7.29389,3.29525 0.35315,0 3.05152,-1.40295 5.99641,-3.11764 2.94485,-1.71471 10.24558,-5.92219 16.22383,-9.34998 5.97826,-3.42777 11.10427,-6.44572 11.39113,-6.70655 0.41634,-0.37858 -2.88046,-2.43953 -16.34077,-10.21523 -9.27427,-5.35754 -17.00335,-9.74097 -17.17568,-9.74097 -0.17235,0 -5.84582,2.69124 -12.60774,5.98056 -10.99208,5.3471 -12.49912,5.97597 -14.22744,5.93702 -2.40795,-0.0543 -3.88062,-0.59712 -5.32371,-1.96251 -2.68079,-2.53642 -3.22364,-6.43971 -1.34102,-9.64231 1.04591,-1.77927 1.44354,-2.03722 9.03789,-5.86328 4.36912,-2.20116 7.78983,-4.13883 7.60158,-4.30592 -0.18822,-0.16709 -4.78888,-2.8484 -10.22365,-5.95847 -5.43477,-3.11005 -10.46111,-6.08134 -11.16965,-6.60283 -4.2385,-3.1197 -3.61464,-10.52676 1.09061,-12.94854 1.62201,-0.83483 4.20588,-1.10547 5.73529,-0.60072 0.77213,0.25482 6.14367,3.20237 11.93677,6.5501 5.79309,3.34772 10.6178,6.00185 10.72157,5.89809 0.10379,-0.10379 -0.0407,-3.927 -0.32105,-8.49604 -0.46737,-7.61704 -0.45396,-8.45339 0.16136,-10.06458 1.78436,-4.67228 7.56222,-6.31755 11.68866,-3.3284 2.79183,2.0224 2.99385,2.89112 3.94168,16.94935 0.46169,6.84783 0.92158,12.99716 1.02198,13.66519 0.17145,1.14083 1.21,1.80687 17.10322,10.96836 9.30637,5.36457 17.04304,9.75376 17.19257,9.75376 0.14953,0 0.22574,-8.84879 0.16937,-19.664 l -0.10249,-19.664 -11.63824,-7.90513 c -10.30999,-7.00292 -11.74224,-8.10395 -12.5494,-9.64713 -2.56836,-4.91043 0.91281,-10.95904 6.41852,-11.15233 1.07738,-0.0378 2.40062,0.0718 2.94052,0.24343 0.53992,0.17172 3.88537,2.25315 7.43433,4.62542 3.54898,2.37228 6.70902,4.41157 7.0223,4.5318 0.4889,0.18761 0.5696,-1.63752 0.5696,-12.88292 0,-12.07628 0.0586,-13.21625 0.74845,-14.56796 1.76185,-3.45205 5.72736,-4.95998 9.64415,-3.66734 1.77556,0.58598 4.05019,3.06764 4.62131,5.04191 0.31386,1.08492 0.40336,28.84022 0.31968,99.13511 l -0.11629,97.62834 -0.89713,1.6794 c -1.75003,3.27598 -6.31179,4.91728 -9.57716,3.44583 z m 22.92488,-100.77729 0,-52.76673 2.5491,0 c 1.402,0 4.43456,0.36386 6.73903,0.80858 21.44079,4.13765 37.67859,20.05215 42.32659,41.48386 0.96761,4.46158 1.17127,13.96755 0.40001,18.67066 -2.43482,14.84771 -11.09947,28.181 -23.55627,36.24871 -7.57297,4.90468 -18.14936,8.31677 -25.79049,8.3204 l -2.66797,10e-4 0,-52.76673 z"
       id="path5317"
       inkscape:connector-curvature="0"
       transform="matrix(1.0444262,0,0,1.0321499,-16.232186,-14.864481)" />
  </g>
</svg>
