<?xml version="1.0" encoding="UTF-8" standalone="no"?>
<!-- Created with Inkscape (http://www.inkscape.org/) -->

<svg
   xmlns:dc="http://purl.org/dc/elements/1.1/"
   xmlns:cc="http://creativecommons.org/ns#"
   xmlns:rdf="http://www.w3.org/1999/02/22-rdf-syntax-ns#"
   xmlns:svg="http://www.w3.org/2000/svg"
   xmlns="http://www.w3.org/2000/svg"
   xmlns:sodipodi="http://sodipodi.sourceforge.net/DTD/sodipodi-0.dtd"
   xmlns:inkscape="http://www.inkscape.org/namespaces/inkscape"
   width="300"
   height="240"
   viewBox="0 0 299.99999 239.99999"
   id="svg2"
   version="1.1"
   inkscape:version="0.91 r13725"
   sodipodi:docname="icono-energy.svg">
  <defs
     id="defs4">
    <filter
       style="color-interpolation-filters:sRGB"
       inkscape:label="Drop Shadow"
       id="filter3574">
      <feFlood
         flood-opacity="0.501961"
         flood-color="rgb(0,0,0)"
         result="flood"
         id="feFlood3576" />
      <feComposite
         in="flood"
         in2="SourceGraphic"
         operator="in"
         result="composite1"
         id="feComposite3578" />
      <feGaussianBlur
         in="composite1"
         stdDeviation="4"
         result="blur"
         id="feGaussianBlur3580" />
      <feOffset
         dx="0"
         dy="0"
         result="offset"
         id="feOffset3582" />
      <feComposite
         in="SourceGraphic"
         in2="offset"
         operator="over"
         result="composite2"
         id="feComposite3584" />
    </filter>
  </defs>
  <sodipodi:namedview
     id="base"
     pagecolor="#7ab2ff"
     bordercolor="#666666"
     borderopacity="1.0"
     inkscape:pageopacity="0"
     inkscape:pageshadow="2"
     inkscape:zoom="0.98994949"
     inkscape:cx="129.31483"
     inkscape:cy="108.07789"
     inkscape:document-units="px"
     inkscape:current-layer="layer1"
     showgrid="false"
     fit-margin-top="0"
     fit-margin-left="0"
     fit-margin-right="0"
     fit-margin-bottom="0"
     inkscape:window-width="1366"
     inkscape:window-height="718"
     inkscape:window-x="0"
     inkscape:window-y="0"
     inkscape:window-maximized="1"
     units="px" />
  <metadata
     id="metadata7">
    <rdf:RDF>
      <cc:Work
         rdf:about="">
        <dc:format>image/svg+xml</dc:format>
        <dc:type
           rdf:resource="http://purl.org/dc/dcmitype/StillImage" />
        <dc:title></dc:title>
      </cc:Work>
    </rdf:RDF>
  </metadata>
  <g
     inkscape:label="Capa 1"
     inkscape:groupmode="layer"
     id="layer1"
     transform="translate(-215.37424,-342.34859)">
    <path
       style="fill:#ffffff;filter:url(#filter3574)"
       d="m 360.14584,574.2727 c -4.49583,-0.85997 -9.89043,-3.62907 -13.23828,-6.79534 -9.33718,-8.8307 -8.97202,-23.09486 1.1058,-43.19643 13.54804,-27.02334 20.97773,-53.79974 20.97773,-75.60321 0,-10.07729 -1.67118,-23.22871 -3.66926,-28.87543 -1.7378,-4.9112 -1.86883,-4.24103 -0.41314,2.11319 0.6041,2.63697 1.25643,8.2915 1.44964,12.56563 1.22222,27.03829 -8.43747,57.52021 -28.58402,90.19919 -2.69028,4.36381 -4.93094,7.43181 -5.21802,7.14474 -1.29577,-1.29578 -10.79888,-32.36076 -13.33117,-43.57866 -4.51862,-20.01724 -4.71483,-44.15643 -0.51423,-63.26334 3.61436,-16.44023 9.33174,-30.16683 21.21918,-50.94413 7.19624,-12.57787 9.51456,-17.30302 11.74286,-23.93409 0.90855,-2.70369 1.76941,-5.03332 1.91304,-5.17695 0.48673,-0.48672 8.76853,1.37567 11.65735,2.6215 4.73555,2.04224 12.26611,7.39738 16.9384,12.04523 12.03932,11.97641 20.37222,28.26077 24.57537,48.02579 2.01835,9.49112 2.55751,27.70421 1.12435,37.9805 -4.6184,33.11566 -23.15504,62.98161 -49.35907,79.52661 -2.30461,1.4551 -3.04316,2.43042 -5.06989,6.69522 -3.19297,6.71885 -4.57075,11.40358 -4.99071,16.9694 -0.46629,6.17992 0.64129,9.63411 4.1163,12.83726 4.83352,4.45538 10.25981,5.71004 20.49347,4.73846 12.07216,-1.14611 21.4185,-3.70245 31.89704,-8.72421 25.46222,-12.20257 43.72518,-35.64581 49.9158,-64.07437 1.08647,-4.98927 1.27203,-7.60499 1.27203,-17.9299 0,-10.3249 -0.18556,-12.94062 -1.27203,-17.92989 -2.60102,-11.94439 -7.20492,-22.81778 -13.99008,-33.04141 -5.0148,-7.55612 -16.75955,-19.2391 -24.45973,-24.33109 l -5.80321,-3.83754 -2.9753,-5.68943 c -1.63642,-3.12919 -2.97529,-5.85436 -2.97529,-6.05592 0,-0.20157 2.0732,0.67589 4.60711,1.94992 28.03619,14.09631 46.66544,38.26079 53.68839,69.64056 1.06507,4.75893 1.22632,7.29609 1.22632,19.2948 0,15.42246 -0.5674,19.30682 -4.56556,31.25517 -12.42567,37.13354 -44.76058,63.13296 -83.85949,67.42859 -6.52583,0.71697 -11.70728,0.70026 -15.6317,-0.0504 z m 3.48207,-160.04693 c -0.18375,-0.4592 -0.32016,-0.32279 -0.34778,0.34779 -0.025,0.60682 0.11106,0.9468 0.30234,0.75553 0.19127,-0.19129 0.21171,-0.68778 0.0455,-1.10332 z M 289.50754,559.0345 c -1.67045,-2.68321 -3.21237,-4.98682 -3.4265,-5.11916 -0.21414,-0.13235 -1.6019,0.52836 -3.08392,1.46822 -1.482,0.93987 -2.90912,1.70884 -3.17134,1.70884 -0.26224,0 -1.48367,-1.9851 -2.7143,-4.41137 -2.16015,-4.25882 -2.23753,-4.61215 -2.23753,-10.2176 0,-5.49815 0.10258,-5.99542 1.9339,-9.37185 1.06365,-1.96108 2.38943,-3.97787 2.9462,-4.48172 0.95682,-0.86592 0.81152,-1.31262 -2.65089,-8.14957 -4.45037,-8.78779 -7.76845,-18.90356 -9.44364,-28.79068 -1.68647,-9.95363 -1.42479,-26.60267 0.56328,-35.83761 5.70989,-26.52357 21.09399,-48.98219 43.49142,-63.49138 5.66658,-3.67085 14.54636,-8.26521 15.03337,-7.7782 0.16866,0.16867 -0.0706,1.0431 -0.5315,1.94316 -0.46097,0.90008 -1.30814,3.13751 -1.88256,4.97205 -1.00486,3.20926 -1.20903,3.43537 -5.39241,5.97217 -22.19271,13.45763 -37.17135,34.57912 -42.75192,60.28483 -1.72009,7.92325 -1.86297,26.68629 -0.26329,34.5774 1.92332,9.4876 6.17617,20.96796 10.50187,28.34919 1.34334,2.29224 1.51314,2.3942 2.99409,1.79814 0.8635,-0.34754 3.51278,-0.63299 5.8873,-0.63431 5.38614,-0.003 9.76885,1.57019 13.48353,4.83996 2.6513,2.33377 6.08822,6.7946 6.08822,7.90198 0,0.3193 -1.55422,1.53989 -3.45383,2.71239 -1.89961,1.17251 -3.4538,2.28929 -3.45376,2.48175 4e-5,0.19244 1.24236,2.29269 2.76071,4.66721 1.51836,2.3745 2.9378,4.60789 3.15431,4.96306 0.36082,0.59185 -5.25119,4.84739 -6.33798,4.80606 -0.24231,-0.008 -1.71693,-2.09462 -3.27692,-4.63421 -1.55998,-2.53961 -3.05227,-4.75094 -3.3162,-4.91405 -0.47097,-0.29107 -7.08876,3.45541 -7.61894,4.31325 -0.14862,0.24048 1.17086,2.69914 2.9322,5.46368 1.76133,2.76454 3.10744,5.10511 2.99137,5.20125 -0.11609,0.0962 -1.67493,1.09975 -3.46412,2.23023 l -3.25305,2.05542 -3.03717,-4.87853 z m 3.30567,-19.57131 c 5.33031,-3.36404 9.93175,-6.33718 10.22545,-6.607 0.30972,-0.28452 -0.6302,-1.00553 -2.23793,-1.71671 -3.87734,-1.71513 -9.03542,-1.3818 -12.32722,0.79661 -3.62013,2.39568 -5.44899,5.57829 -5.72856,9.96898 -0.12869,2.02099 -0.0966,3.67455 0.0714,3.67455 0.16797,0 4.66655,-2.75239 9.99686,-6.11643 z"
       id="path3379"
       inkscape:connector-curvature="0"
       transform="matrix(0.94202888,0,0,0.94202888,21.18115,29.157939)" />
  </g>
</svg>
