<?xml version="1.0" encoding="UTF-8" standalone="no"?>
<!-- Created with Inkscape (http://www.inkscape.org/) -->

<svg
   xmlns:dc="http://purl.org/dc/elements/1.1/"
   xmlns:cc="http://creativecommons.org/ns#"
   xmlns:rdf="http://www.w3.org/1999/02/22-rdf-syntax-ns#"
   xmlns:svg="http://www.w3.org/2000/svg"
   xmlns="http://www.w3.org/2000/svg"
   xmlns:sodipodi="http://sodipodi.sourceforge.net/DTD/sodipodi-0.dtd"
   xmlns:inkscape="http://www.inkscape.org/namespaces/inkscape"
   width="300"
   height="240"
   viewBox="0 0 299.99999 239.99999"
   id="svg2"
   version="1.1"
   inkscape:version="0.91 r13725"
   sodipodi:docname="icono-bim.svg">
  <defs
     id="defs4">
    <filter
       style="color-interpolation-filters:sRGB"
       inkscape:label="Drop Shadow"
       id="filter3574">
      <feFlood
         flood-opacity="0.501961"
         flood-color="rgb(0,0,0)"
         result="flood"
         id="feFlood3576" />
      <feComposite
         in="flood"
         in2="SourceGraphic"
         operator="in"
         result="composite1"
         id="feComposite3578" />
      <feGaussianBlur
         in="composite1"
         stdDeviation="4"
         result="blur"
         id="feGaussianBlur3580" />
      <feOffset
         dx="0"
         dy="0"
         result="offset"
         id="feOffset3582" />
      <feComposite
         in="SourceGraphic"
         in2="offset"
         operator="over"
         result="composite2"
         id="feComposite3584" />
    </filter>
    <filter
       style="color-interpolation-filters:sRGB;"
       inkscape:label="Drop Shadow"
       id="filter5269">
      <feFlood
         flood-opacity="0.501961"
         flood-color="rgb(0,0,0)"
         result="flood"
         id="feFlood5271" />
      <feComposite
         in="flood"
         in2="SourceGraphic"
         operator="in"
         result="composite1"
         id="feComposite5273" />
      <feGaussianBlur
         in="composite1"
         stdDeviation="4"
         result="blur"
         id="feGaussianBlur5275" />
      <feOffset
         dx="0"
         dy="0"
         result="offset"
         id="feOffset5277" />
      <feComposite
         in="SourceGraphic"
         in2="offset"
         operator="over"
         result="composite2"
         id="feComposite5279" />
    </filter>
  </defs>
  <sodipodi:namedview
     id="base"
     pagecolor="#7ab2ff"
     bordercolor="#666666"
     borderopacity="1.0"
     inkscape:pageopacity="0"
     inkscape:pageshadow="2"
     inkscape:zoom="0.98994949"
     inkscape:cx="-2.0050013"
     inkscape:cy="108.07789"
     inkscape:document-units="px"
     inkscape:current-layer="layer1"
     showgrid="false"
     fit-margin-top="0"
     fit-margin-left="0"
     fit-margin-right="0"
     fit-margin-bottom="0"
     inkscape:window-width="1366"
     inkscape:window-height="718"
     inkscape:window-x="0"
     inkscape:window-y="0"
     inkscape:window-maximized="1"
     units="px" />
  <metadata
     id="metadata7">
    <rdf:RDF>
      <cc:Work
         rdf:about="">
        <dc:format>image/svg+xml</dc:format>
        <dc:type
           rdf:resource="http://purl.org/dc/dcmitype/StillImage" />
        <dc:title></dc:title>
      </cc:Work>
    </rdf:RDF>
  </metadata>
  <g
     inkscape:label="Capa 1"
     inkscape:groupmode="layer"
     id="layer1"
     transform="translate(-215.37424,-342.34859)">
    <path
       style="fill:#ffffff;filter:url(#filter5269)"
       d="m 293.37365,538.24282 -41.28487,-14.85328 -0.16003,-36.3043 c -0.088,-19.96735 -0.28778,-36.54337 -0.44394,-36.83557 -0.21434,-0.40109 -0.96554,-0.38766 -3.06535,0.0549 -4.49748,0.94775 -7.82189,-0.51342 -6.55217,-2.87984 0.75265,-1.40276 33.64975,-33.20231 36.2658,-35.05586 2.02619,-1.43561 109.04619,-40.77662 110.92533,-40.77662 0.71803,0 1.83458,0.48757 2.48122,1.08349 0.64664,0.59592 11.89964,14.84527 25.00667,31.6652 l 23.83099,30.58173 22.88732,4.07182 c 13.57962,2.41593 23.4978,4.4082 24.38845,4.89893 l 1.50112,0.8271 0,34.1589 c 0,32.67226 -0.052,34.19201 -1.19464,34.91948 -1.15846,0.73753 -150.85311,39.32371 -152.48726,39.30601 -0.44758,-0.006 -19.39196,-6.69278 -42.09864,-14.86206 z m 92.10118,-3.55778 c 24.91499,-6.39188 46.09828,-11.82348 47.07395,-12.0702 l 1.77395,-0.4486 0,-41.72363 0,-41.72362 -1.38041,-1.91058 c -2.48944,-3.44555 -43.87436,-56.35828 -44.36053,-56.71717 -0.26085,-0.19257 -11.41174,11.19193 -24.77975,25.2989 l -24.30546,25.64904 0,57.63371 c 0,31.69855 0.15261,57.63374 0.33912,57.63374 0.18652,0 20.72413,-5.22971 45.63913,-11.62159 z m -26.96417,-9.79916 c -0.18252,-0.33461 -0.25366,-5.29845 -0.1581,-11.0308 l 0.17376,-10.42243 10.63832,-1.21221 c 5.85107,-0.66674 10.85847,-1.11651 11.12755,-0.99953 0.26909,0.11699 0.48925,4.68762 0.48925,10.15694 l 0,9.94423 -3.38665,0.66451 c -1.86265,0.36549 -6.28949,1.19953 -9.83741,1.85342 -3.54791,0.65388 -6.96018,1.29358 -7.58281,1.42156 -0.62263,0.12796 -1.2814,-0.0411 -1.46391,-0.37569 z m 29.15159,-5.20241 c -0.61355,-0.43161 -0.53493,-19.11186 0.0815,-19.3799 0.49152,-0.21369 16.26875,-2.10013 17.56452,-2.10013 0.39085,0 0.63106,3.54126 0.63106,9.30296 0,5.11665 -0.1239,9.30298 -0.27534,9.30298 -0.15145,0 -4.09152,0.71475 -8.75572,1.58831 -9.67977,1.81296 -8.69198,1.67561 -9.24608,1.28578 z m 23.72495,-4.81735 c -0.17455,-0.32001 -0.23802,-4.35321 -0.14101,-8.96263 l 0.17635,-8.38075 6.94267,-0.84053 c 3.81847,-0.46229 7.38103,-0.72219 7.91679,-0.57755 0.82851,0.22365 0.94783,1.49636 0.79825,8.51416 l -0.17588,8.25121 -6.77331,1.26435 c -7.87009,1.46912 -8.32105,1.50686 -8.74386,0.73174 z m -53.18342,-30.64567 0,-10.89151 5.96695,-0.30252 c 3.28183,-0.1664 8.28923,-0.23651 11.12756,-0.15581 l 5.16061,0.14671 0.17357,10.08633 0.17357,10.08629 -1.46372,0.21659 c -0.80504,0.11909 -4.51171,0.43305 -8.23702,0.69765 -3.72531,0.2646 -8.15215,0.5996 -9.8374,0.74445 l -3.06412,0.26334 0,-10.89152 z m 29.31689,7.95783 c -0.17386,-0.31873 -0.23731,-4.76032 -0.14102,-9.87022 l 0.17508,-9.29074 9.19234,-0.12591 9.19233,-0.1259 0,9.31543 c 0,5.12349 -0.0726,9.3172 -0.16127,9.31938 -0.0887,0.003 -3.78982,0.30671 -8.22472,0.67675 -9.81134,0.81868 -9.64231,0.81697 -10.03274,0.10121 z m 23.86653,-1.81757 c -0.17455,-0.32001 -0.23802,-4.35318 -0.14101,-8.96262 l 0.17635,-8.38077 7.74091,0 7.74092,0 0,8.39538 0,8.39537 -6.12823,0.5284 c -8.16057,0.70369 -9.01711,0.70589 -9.38894,0.0242 z m 4.87341,-23.88179 -4.83807,-0.26864 -0.17524,-8.7462 c -0.13942,-6.95711 6.4e-4,-8.79369 0.68489,-8.97839 0.47306,-0.1277 4.03533,0.13229 7.91615,0.57773 l 7.05603,0.80992 0,8.39537 0,8.39537 -2.90286,0.0418 c -1.59656,0.0229 -5.07996,-0.0792 -7.7409,-0.22691 z m -25.80304,-0.90406 -2.90284,-0.2722 -0.17434,-9.70675 -0.17437,-9.70677 4.68989,0.31781 c 2.57943,0.17481 6.72188,0.56072 9.20541,0.8576 l 4.51554,0.53977 0.17463,9.18952 0.17462,9.18953 -6.30284,-0.068 c -3.46657,-0.0375 -7.60913,-0.19064 -9.2057,-0.34035 z m -28.5446,-0.83445 -3.70919,-0.16374 0,-10.86866 0,-10.86862 1.77396,0.0282 c 0.97568,0.0155 5.98308,0.47957 11.12756,1.03119 l 9.3536,1.00299 0.17362,10.08698 0.17359,10.08699 -7.59197,-0.0858 c -4.17559,-0.0472 -9.26111,-0.15949 -11.30117,-0.24955 z m -68.86186,52.52658 c 0,-16.84448 -0.078,-18.11041 -1.12889,-18.32085 -0.62088,-0.12433 -3.41149,-0.57219 -6.20134,-0.99519 -4.27279,-0.64787 -5.16108,-0.67072 -5.63454,-0.14485 -0.67841,0.75345 -0.76264,32.62842 -0.0881,33.35443 0.64642,0.69581 11.96478,4.66442 12.56911,4.40719 0.26609,-0.11327 0.48381,-8.3486 0.48381,-18.30073 z m 26.94359,-3.06397 -0.17293,-10.77482 -7.71245,-1.22901 c -5.60136,-0.89258 -7.94097,-1.09558 -8.54726,-0.7416 -0.63306,0.36962 -0.83242,2.69481 -0.82493,9.62136 0.006,5.0237 0.23686,9.38535 0.51429,9.69258 0.61011,0.67568 13.39292,4.12835 15.45313,4.17394 l 1.46311,0.0323 -0.17296,-10.77483 z m -47.08771,-10.04916 -0.17578,-7.98942 -2.51369,-0.57891 c -1.38252,-0.31841 -3.84993,-0.62542 -5.48313,-0.68228 l -2.96947,-0.10334 -0.17645,7.53676 c -0.13654,5.83265 0.0173,7.64992 0.68039,8.03706 1.7464,1.01962 9.15033,2.65406 9.99306,2.20599 0.62203,-0.33074 0.77828,-2.37161 0.64507,-8.42586 z m 183.9934,3.19394 6.77331,-1.28505 0,-10.16947 0,-10.16944 -5.58334,0.11161 c -3.07083,0.0613 -6.69938,0.27463 -8.06345,0.47389 l -2.48011,0.36227 -0.17275,10.98465 -0.17274,10.98465 1.4629,-0.004 c 0.80459,-0.003 4.51087,-0.5823 8.23618,-1.28909 z m 20.96497,-3.8494 5.16061,-0.98383 0.17561,-8.8164 c 0.0986,-4.94947 -0.0849,-8.99961 -0.41818,-9.23412 -0.90912,-0.63955 -11.5805,0.11213 -12.69192,0.894 -0.75002,0.52764 -0.93465,2.34697 -0.93465,9.21026 0,4.70401 0.1762,8.87575 0.39155,9.27054 0.50455,0.92496 2.00062,0.86371 8.31698,-0.34045 z M 319.9952,484.1676 c 0.13383,-8.20325 -0.0135,-10.71582 -0.64507,-10.99779 -1.34314,-0.59974 -14.96326,-0.45777 -15.84878,0.16518 -0.9508,0.66887 -1.08241,18.37597 -0.14438,19.4228 0.39152,0.43693 2.98695,0.94926 7.24723,1.43057 10.30163,1.16387 9.18918,2.35092 9.391,-10.02076 z m -26.94409,-1.88995 0,-9.51898 -6.61203,0.12934 -6.61204,0.12931 -0.1593,8.39538 c -0.0877,4.61744 0.0733,8.64908 0.35758,8.95917 0.49938,0.54471 11.5604,1.95587 12.54199,1.60009 0.26609,-0.0964 0.4838,-4.45888 0.4838,-9.69431 z m -20.30928,6.73626 c 0.19675,-0.56158 0.27485,-4.39055 0.17356,-8.50882 l -0.18418,-7.48777 -4.51553,-0.28257 c -7.0011,-0.43811 -6.77496,-0.70225 -6.76343,7.89975 0.006,4.0471 0.22315,7.58533 0.48382,7.86276 0.40799,0.43423 5.85757,1.29824 9.33143,1.47946 0.66155,0.0345 1.26239,-0.35786 1.47433,-0.96281 z m 190.23402,-14.68373 c 0.88839,-0.23981 1.02037,-1.58889 1.02037,-10.42884 l 0,-10.15338 -1.45141,-0.23678 c -3.45326,-0.56333 -14.30053,-1.53184 -14.78712,-1.32029 -0.63096,0.27434 -0.73101,21.67069 -0.10338,22.11221 0.53757,0.37819 13.93324,0.40186 15.32154,0.027 z m 19.59857,-0.26911 c 1.1381,-0.80064 1.09508,-18.0032 -0.0458,-18.3112 -0.45093,-0.12174 -3.28122,-0.50492 -6.28949,-0.85153 -4.92296,-0.56721 -5.55019,-0.55767 -6.27595,0.0954 -1.02255,0.92017 -1.14454,17.41179 -0.13857,18.73411 0.58223,0.76534 1.39203,0.87778 6.32174,0.87778 3.53744,0 5.94375,-0.20384 6.42807,-0.54457 z m -210.01435,-7.78538 c 0.67178,-0.73599 0.59107,-15.36466 -0.089,-16.11991 -0.4726,-0.52491 -1.37634,-0.4885 -5.63453,0.2269 l -5.07167,0.85206 -0.18465,7.03397 c -0.10157,3.86868 -0.0153,7.51652 0.19186,8.1063 0.36816,1.04857 0.48678,1.06513 5.34526,0.74614 2.73281,-0.17945 5.18202,-0.55989 5.44268,-0.84546 z m 19.95885,-0.5683 c 0.58276,-0.25338 0.75298,-18.47718 0.17638,-18.88281 -0.56482,-0.39735 -12.17169,1.50021 -12.69711,2.07578 -0.62538,0.68508 -0.6346,16.82898 -0.01,17.28455 0.49582,0.36158 11.57144,-0.0605 12.53061,-0.47752 z m 25.36761,-1.04693 1.93524,-0.32259 0.17319,-10.53337 c 0.14638,-8.90286 0.0271,-10.57279 -0.77026,-10.78806 -1.49015,-0.40226 -14.78792,1.69662 -15.69111,2.47664 -1.08187,0.93436 -1.15441,18.7025 -0.0795,19.45873 0.76047,0.53498 10.67608,0.33482 14.4324,-0.29135 z"
       id="path3347"
       inkscape:connector-curvature="0"
       transform="matrix(1.1085979,0,0,1.1115958,-39.678886,-51.596162)" />
  </g>
</svg>
